<?xml version="1.0" encoding="UTF-8" standalone="no"?>
<!-- Created with Inkscape (http://www.inkscape.org/) -->

<svg
   version="1.1"
   id="svg1"
   width="11609"
   height="7030"
   viewBox="0 0 11609 7030"
   sodipodi:docname="logo.png"
   xmlns:inkscape="http://www.inkscape.org/namespaces/inkscape"
   xmlns:sodipodi="http://sodipodi.sourceforge.net/DTD/sodipodi-0.dtd"
   xmlns="http://www.w3.org/2000/svg"
   xmlns:svg="http://www.w3.org/2000/svg">
  <defs
     id="defs1" />
  <sodipodi:namedview
     id="namedview1"
     pagecolor="#505050"
     bordercolor="#eeeeee"
     borderopacity="1"
     inkscape:showpageshadow="0"
     inkscape:pageopacity="0"
     inkscape:pagecheckerboard="0"
     inkscape:deskcolor="#505050">
    <inkscape:page
       x="0"
       y="0"
       width="11609"
       height="7030"
       id="page2"
       margin="0"
       bleed="0" />
  </sodipodi:namedview>
  <g
     inkscape:groupmode="layer"
     inkscape:label="Image"
     id="g1">
    <path
       style="fill:#000000"
       d="m 2951,6936.4002 c -51.641,-2.3281 -80.7397,-4.3741 -120,-8.4374 -127.1305,-13.1577 -252.9242,-40.0488 -371.5,-79.4161 -62.2954,-20.6821 -109.1784,-39.934 -167,-68.5764 -62.7939,-31.1054 -127.7775,-69.6487 -188.3014,-111.686 C 1933.8258,6549.9509 1774.7003,6374.199 1660.2957,6178 c -74.294,-127.4111 -125.3087,-253.2986 -164.3251,-405.5 -14.4361,-56.3147 -19.6644,-82.554 -32.9766,-165.5 -19.0624,-118.7742 -18.433,-110.3226 -18.3957,-247 0.035,-127.2797 1.1231,-153.3247 8.9502,-214.167 20.7115,-160.9962 35.5245,-227.271 82.3561,-368.4705 26.0614,-78.5764 43.2847,-119.7793 84.5903,-202.3625 63.9049,-127.7669 127.3907,-228.6031 206.3257,-327.7129 43.8494,-55.0569 72.1718,-86.2393 133.3317,-146.796 68.1426,-67.4706 104.5343,-100.6565 152.8477,-139.3833 207.7152,-166.4993 472.4316,-308.8167 741.4016,-398.5941 137.0378,-45.7408 390.7982,-108.394 439.5685,-108.529 9.9134,-0.028 10.4153,-2.8519 1.2105,-6.8117 -2.616,-1.1253 -12.3894,-4.3948 -21.7185,-7.2654 -74.9537,-23.0634 -209.6864,-86.1391 -300.4621,-140.6626 -159.97,-96.0844 -313.5157,-233.8697 -434.9997,-390.3503 -58.317,-75.1166 -105.0582,-148.9846 -149.5829,-236.3947 -26.0911,-51.2218 -42.9031,-88.2299 -62.9172,-138.5 -35.5974,-89.4107 -59.1111,-170.167 -81.0905,-278.5 -23.0951,-113.8323 -35.3059,-290.8517 -27.868,-404 3.3733,-51.3152 3.1764,-65.8728 -0.9467,-69.9959 -7.6625,-7.6625 -203.9565,-61.6529 -308.6812,-84.9024 -117.3705,-26.0568 -224.5307,-44.2659 -306.4138,-52.0671 -247.216,-23.5528 -438.6059,-6.4934 -620.5,55.3078 -76.68702,26.0556 -158.77801,63.5352 -220.83285,100.8238 -116.85178,70.2161 -224.48364,170.7246 -293.24126,273.8338 -29.53238,44.2869 -59.54352,104.0353 -81.62247,162.5 -21.89158,57.9686 -33.40535,102.5957 -43.73084,169.5 -20.99139,136.0142 -20.22754,248.4943 2.45535,361.5648 16.36727,81.5881 48.28883,174.3581 87.89367,255.4352 54.61352,111.8022 123.68157,199.1061 223.0784,281.9772 122.89209,102.4601 266.82467,166.8333 418,186.9487 38.4208,5.1122 54.3916,6.0645 101.5,6.0518 34.3458,-0.01 48.2785,-0.4057 63.5,-1.8072 58.9145,-5.4243 104.2337,-14.1956 163.5,-31.6443 39.346,-11.584 43.1418,-11.9509 55.6483,-5.3789 19.2454,10.1131 31.4196,37.4062 24.9261,55.8812 -4.5268,12.8798 -19.4688,29.6984 -31.4618,35.4132 -27.4366,13.074 -111.7301,29.2342 -190.6126,36.543 -67.3766,6.2428 -143.9344,3.35 -214,-8.0859 C 919.50509,3558.9157 800.74629,3512.8783 696.71605,3444.3849 597.85194,3379.2929 514.74865,3303.4023 449.73864,3218.8432 382.36797,3131.2136 327.83193,3025.7314 287.99347,2906 c -19.34199,-58.1309 -26.2607,-86.8384 -39.40461,-163.5 -10.93549,-63.7811 -11.3717,-68.4995 -12.2493,-132.5 -0.98936,-72.1503 1.79108,-136.3902 7.74749,-179 20.86257,-149.2425 64.75335,-275.4271 134.78417,-387.5 27.96873,-44.7594 62.86647,-90.2027 104.02877,-135.4646 16.89109,-18.5734 58.59863,-59.7903 74.60146,-73.7238 C 617.22952,1782.3067 692.7329,1729.3078 752,1697.7851 c 13.04069,-6.936 69.59688,-33.5369 101,-47.5047 39.78425,-17.6956 78.84101,-32.3638 124.5,-46.7573 153.7897,-48.4803 283.6799,-65.664 466.0267,-61.6522 152.2459,3.3495 233.0613,13.4031 438.9733,54.6089 103.1253,20.6367 122.5783,25.34 225.644,54.5552 52.5078,14.884 98.2623,27.3363 111.1634,30.2538 6.7979,1.5373 6.8086,1.5363 7.6664,-0.7199 0.7665,-2.0161 5.2348,-26.2874 18.1464,-98.5689 8.9446,-50.0741 20.7844,-105.1309 29.9989,-139.5 18.4911,-68.9696 55.7322,-182.4962 78.8933,-240.5 56.5804,-141.6982 162.2362,-322.82218 264.8335,-454 C 2671.8631,680.21383 2772.6114,576.48098 2849,511.02775 3028.0295,357.62713 3269.9341,227.77309 3500.3154,161.40259 3749.9845,89.475444 4042.7214,72.481294 4265,117.01062 c 56.9913,11.41713 115.3276,28.35497 177.8446,51.63683 125.1633,46.61195 218.9942,105.56324 299.1554,187.95088 118.2419,121.52606 190.2997,272.89734 208.4558,437.90167 5.5641,50.56749 5.9218,108.48237 0.982,159 -6.6056,67.5534 -22.3622,138.7593 -42.8949,193.8473 -24.1278,64.7332 -59.1881,133.2445 -99.1614,193.771 -6.7628,10.24 -15.8028,23.1222 -20.0888,28.6271 -31.0308,39.8554 -106.528,116.3067 -155.085,157.0448 -35.2159,29.5452 -99.7152,73.208 -160.4411,108.6105 -160.9555,93.8352 -342.051,162.66 -547.2666,207.9868 -181.4147,40.0699 -322.0529,59.2815 -487.5,66.5942 -50.0788,2.2135 -89.4965,3.0708 -168.5,3.6647 -202.4471,1.5221 -357.8961,-5.7484 -486,-22.7307 -36.8606,-4.8864 -57.4423,-8.1639 -112.5,-17.9146 -52.0755,-9.2225 -72.452,-11.6074 -74.7692,-8.7511 -5.5229,6.8079 -9.5125,89.9082 -9.5419,198.75 -0.022,81.564 1.3086,111.4001 7.3805,165.5 11.1035,98.9306 35.7949,227.758 59.7987,312 44.8369,157.3564 118.1287,309.1372 211.8503,438.7232 61.2931,84.7481 142.446,166.2182 233.2816,234.1934 46.5803,34.8575 90.6017,62.3685 136.751,85.462 99.7362,49.9087 205.4568,82.6148 312.249,96.5983 20.2071,2.6459 41.707,6.5144 50.6679,9.1165 17.2694,5.015 29.3664,27.9647 29.3147,55.6144 -0.031,16.5836 -4.3493,30.2256 -12.8947,40.7355 -5.7354,7.054 -8.3948,9.3341 -15.0879,12.9361 -9.6676,5.2027 -21.6835,7.613 -58,11.634 -120.5427,13.3468 -259.0051,41.4399 -360.3874,73.1204 -122.2943,38.2152 -257.1248,94.5532 -337.0907,140.8512 -8.8121,5.1019 -20.2969,11.4111 -25.5219,14.0205 -18.7671,9.3724 -94.594,56.0186 -137.5,84.5855 -136.2701,90.7289 -269.3577,209.4573 -383.2598,341.909 -69.7099,81.0626 -128.9209,164.1102 -176.4614,247.5 -46.0902,80.8458 -97.1216,187.8777 -126.1324,264.5468 -26.5749,70.2313 -60.0409,183.6225 -78.5132,266.0219 -17.6923,78.9199 -30.388,189.7189 -36.3151,316.9313 -1.6268,34.9169 -1.6254,154.5179 0,189 5.8389,123.6977 17.872,221.4859 40.1977,326.6713 41.9642,197.7105 109.2817,366.8936 205.247,515.8287 96.3523,149.5357 225.413,280.0389 352.235,356.1719 76.8451,46.1312 185.3308,94.7819 264.699,118.7051 79.476,23.9556 166.8289,38.5689 260.7163,43.6155 25.0905,1.3486 90.4663,1.3447 114.6997,-0.01 22.3684,-1.2476 68.6247,-5.2124 93.885,-8.0472 45.7291,-5.132 81.8863,-12.1939 149,-29.1014 154.7601,-38.9875 290.319,-96.5397 425.5,-180.6481 177.0466,-110.1567 353.622,-267.6181 492.2948,-439.0048 163.3347,-201.8664 316.588,-448.6847 421.7411,-679.2245 5.4037,-11.8473 18.0007,-40.1973 27.9932,-63 44.0011,-100.4094 51.139,-114.3044 63.3866,-123.3908 10.467,-7.7652 14.0457,-9.0759 24.5843,-9.0038 23.6556,0.1618 45.526,10.5912 52.6215,25.0937 3.2782,6.7004 4.2803,18.0802 2.4233,27.519 -8.4416,42.9079 -129.121,295.7735 -201.5521,422.3223 -83.7269,146.2843 -191.525,305.0629 -296.0962,436.1282 -213.7261,267.8755 -464.4323,472.1379 -734.4991,598.4319 -107.7733,50.3991 -196.1998,78.441 -337.1003,106.9017 -66.414,13.4151 -125.099,20.4222 -210.2971,25.1098 -18.304,1.0071 -127.1258,2.0217 -142.5,1.3286 z m 397.5,-5123.4856 c 123.4638,-1.3555 131.682,-1.6977 189.5,-7.8908 121.5004,-13.0144 185.3291,-21.9186 265.7681,-37.075 180.0648,-33.9279 338.0674,-81.6304 476.7319,-143.93 25.0081,-11.2357 83.8739,-40.712 106.7144,-53.4358 138.0751,-76.918 246.8896,-166.261 325.2914,-267.083 55.7625,-71.7086 99.6775,-161.3449 122.5086,-250.0559 8.1839,-31.799 15.035,-70.46488 16.9114,-95.4441 3.6448,-48.52147 1.3968,-135.00235 -4.9726,-191.29938 -2.3509,-20.77849 -3.7162,-28.44024 -8.9688,-50.33117 C 4810.0918,600.12235 4759.685,509.87435 4675.5,425.458 4621.5738,371.38365 4564.8079,330.91755 4492.5,295.00489 4423.2186,260.59538 4352.5261,236.56663 4260.1851,216.03991 4204.38,203.63484 4171.9322,200.56193 4098,200.68048 c -94.8616,0.15211 -159.6167,4.88649 -229.5209,16.78075 C 3692.3802,247.4246 3497.5141,335.79427 3329.5,461.88232 3229.4125,536.99415 3149.853,613.96809 3055.9939,726.5 c -129.8677,155.70422 -221.2498,305.4449 -295.9804,485 -37.3849,89.8245 -70.9006,188.8138 -94.4174,278.8636 C 2638.5945,1593.7574 2613,1721.716 2613,1753.3157 c 0,7.7854 1.4333,9.9544 8.2675,12.5114 29.7252,11.1217 196.3423,32.7472 352.7325,45.7819 10.725,0.8939 31.65,1.9697 46.5,2.3906 31.8419,0.9024 196.6246,0.3574 328,-1.085 z m 5641.4627,3255.9089 c -11.2977,-5.6455 -25.8582,-20.7686 -88.408,-91.8235 -14.7671,-16.775 -33.2202,-37.7 -41.0071,-46.5 -18.2067,-20.5756 -141.0131,-160.9147 -171.0476,-195.4674 -51.9404,-59.754 -73.6202,-84.4659 -107.4498,-122.477 -37.1232,-41.7118 -40.1079,-45.0827 -74.9982,-84.7011 -11.7964,-13.395 -21.7164,-24.5795 -22.0444,-24.8545 -0.613,-0.514 -98.5985,-112.5924 -128.0335,-146.4482 -9.0608,-10.4216 -22.7741,-26.1852 -30.4741,-35.0303 -7.7,-8.8451 -20.975,-24.1478 -29.5,-34.0061 -26.7878,-30.9772 -45.2914,-50.5573 -46.5697,-49.279 -1.4558,1.4558 -2.416,94.1188 -2.9095,280.7636 -0.5616,212.4219 -1.5731,438.036 -2.0601,459.5 -0.1622,7.15 -0.5784,28.075 -0.9249,46.5 -0.3465,18.425 -1.0963,34.9703 -1.6662,36.7674 -1.1704,3.6906 -3.7972,5.3168 -11.8696,7.3484 -7.6131,1.916 -83.0249,1.9856 -93.9975,0.087 -4.1236,-0.7136 -7.899,-1.699 -8.3898,-2.1898 -1.5505,-1.5505 -2.491,-10.5056 -3.8209,-36.3794 -1.0291,-20.0217 -1.2412,-132.6099 -1.043,-553.5821 0.1369,-290.6469 0.6018,-528.8018 1.0332,-529.2332 0.4314,-0.4314 6.0168,-1.0833 12.412,-1.4485 11.4198,-0.6523 11.7108,-0.6153 16.2858,2.0658 9.1386,5.3556 21.4676,18.3952 70.0282,74.0647 11.5144,13.2 28.4017,32.55 37.5273,43 9.1256,10.45 20.6873,23.725 25.6925,29.5 10.6205,12.2537 27.1239,31.1777 73.2722,84.019 18.425,21.0972 40.025,45.8467 48,54.9989 7.975,9.1522 43.3,49.6469 78.5,89.9883 35.2,40.3414 70.525,80.8563 78.5,90.0331 25.1469,28.9365 77.0746,88.6133 96.5524,110.9607 10.3066,11.825 31.2187,35.9 46.4715,53.5 15.2527,17.6 38.8565,44.825 52.4527,60.5 13.5962,15.675 29.9636,34.56 36.3719,41.9667 62.1164,71.7934 85.8958,98.0333 88.8409,98.0333 2.0066,0 3.4447,-7.4897 4.4094,-22.9645 1.6666,-26.7325 2.8048,-234.8842 2.8532,-521.7855 L 8893,3950 h 61 61 v 561 561 h -9.3403 c -8.4926,0 -9.9171,-0.2883 -15.697,-3.1765 z M 6148,5070.0259 c -13.8117,-1.0551 -28.8859,-1.8368 -48.5,-2.5152 -8.8,-0.3044 -20.1714,-0.823 -25.2698,-1.1525 l -9.2697,-0.599 0.068,-41.1296 c 0.4139,-250.4293 2.9299,-1070.9213 3.2851,-1071.2764 0.7261,-0.7261 117.6941,-3.679 118.3844,-2.9886 0.3371,0.3371 0.9678,91.4055 1.4014,202.3742 0.7298,186.7455 2.0976,402.3986 3.3695,531.2612 0.7666,77.6705 2.0312,288.3954 2.0312,338.4745 v 42.9746 l -9.5,2.2749 c -11.3483,2.7175 -21.8062,3.3862 -36,2.3019 z m 3252,-0.1179 c -69.7811,-0.674 -88.5945,-1.1692 -89.7884,-2.3631 -1.4558,-1.4558 -2.2745,-177.6516 -2.8567,-614.7949 l -0.6695,-502.75 16.4073,0.023 c 9.024,0.013 155.4573,0.6771 325.4073,1.4767 169.95,0.7996 311.5913,1.4643 314.7584,1.4771 l 5.7584,0.023 -0.2584,55.75 -0.2584,55.75 -133.5,0.7477 c -73.425,0.4112 -194.7,1.0862 -269.5,1.5 l -136,0.7523 -0.2529,168.9471 c -0.1391,92.9209 0.1269,169.3269 0.5911,169.7911 0.4643,0.4643 119.3781,1.5232 264.2529,2.3533 144.8749,0.83 263.6986,1.824 264.0526,2.2088 0.5195,0.5646 2.8971,90.5699 2.8649,108.4497 L 9961,4524 h -265.441 c -145.9925,0 -265.6436,0.3375 -265.8914,0.75 -0.2477,0.4125 -0.084,51.15 0.3648,112.75 0.4483,61.6 1.1189,157.225 1.4902,212.5 0.3713,55.275 0.9934,100.8404 1.3826,101.2564 0.6682,0.7143 312.042,4.42 404.5948,4.8152 23.65,0.1009 62.8,0.4637 87,0.806 l 44,0.6224 0.2583,55.6299 0.2584,55.6298 -62.2584,0.5979 c -103.9941,0.9986 -424.3386,1.3465 -506.7583,0.5504 z m -2038.1671,-2.8734 c -66.3668,-0.294 -120.9913,-0.8591 -121.3877,-1.2557 -0.8217,-0.8222 -2.3055,-509.0839 -2.3772,-814.2789 -0.04,-172.2013 0.9487,-299.85 2.3341,-301.2354 0.3961,-0.3962 444.4017,1.4247 573.3479,2.3513 l 87.25,0.627 v 55.7134 55.7135 l -133.75,0.6633 c -73.5625,0.3648 -194.5304,0.963 -268.8177,1.3292 l -135.0676,0.666 -1.9324,11.0859 c -1.6632,9.5417 -1.8934,15.0555 -1.6528,39.5858 0.1538,15.675 0.4491,31.875 0.6564,36 0.2072,4.125 0.7043,62.7375 1.1047,130.25 0.6643,112.0395 0.8688,122.752 2.3436,122.7733 6.9052,0.099 496.4822,2.9354 509.8658,2.9534 L 7891,4410 v 56 56 l -20.25,-0.024 c -61.9685,-0.074 -480.656,2.1887 -493.5,2.667 l -15.25,0.5678 V 4740.1053 4955 h 268.5 268.5 v 39.5779 c 0,38.7684 -1.0812,60.4599 -3.3593,67.3943 -0.6411,1.9516 -2.2356,4.0254 -3.6407,4.7353 -1.9933,1.007 -43.7469,1.2223 -206,1.0623 -111.925,-0.1103 -257.8002,-0.4412 -324.1671,-0.7352 z M 4863.5712,5026.25 c -0.3134,-22.4125 -0.8278,-273.0625 -1.143,-557 l -0.5732,-516.25 131.3225,0.013 c 119.4907,0.012 226.4354,1.0188 265.3225,2.4987 64.6734,2.4613 113.2607,8.0013 158.5,18.0723 88.3163,19.6606 142.7446,44.7674 198.9398,91.7674 26.3454,22.0344 55.7133,51.0632 75.1992,74.3307 30.2752,36.1506 52.4513,73.1695 77.1681,128.8181 30.2561,68.1198 41.462,110.7125 47.7516,181.5 1.3766,15.4935 2.0282,117.6188 0.8678,136 -2.2791,36.0998 -7.5257,63.2814 -21.8674,113.2903 -12.1204,42.2635 -20.1024,63.7924 -34.9294,94.2097 -23.7205,48.6625 -51.1319,87.41 -88.1273,124.5725 -31.993,32.1375 -63.5838,55.9927 -105.6893,79.8091 -8.4259,4.766 -43.6062,22.1184 -44.843,22.1184 -0.2925,0 -5.3554,1.9933 -11.2509,4.4296 -24.6329,10.1795 -44.6391,16.4846 -96.9052,30.5404 l -30.186,8.1179 -229.814,1.9381 c -126.3977,1.066 -243.1697,1.9462 -259.4934,1.9561 L 4864.1411,5067 Z M 5172,4952.9745 c 137.7156,-2.4038 167.9225,-4.5231 208.5,-14.6283 55.3378,-13.781 101.455,-33.398 143,-60.8284 91.5038,-60.4162 149.4048,-160.2562 165.0025,-284.5178 2.3638,-18.8317 2.4214,-19.4102 3.4868,-35 3.0292,-44.3257 0.019,-97.238 -8.1062,-142.5 -13.3316,-74.2626 -37.262,-131.8923 -73.6571,-177.3826 -58.2741,-72.8369 -126.4225,-117.4472 -221.0007,-144.6683 -42.7028,-12.2905 -71.7621,-17.515 -113.7253,-20.4464 -22.1207,-1.5453 -136.0235,-4.5852 -205.5,-5.4844 -22.825,-0.2955 -51.5668,-0.8257 -63.8708,-1.1783 l -22.3707,-0.6412 0.6747,441.4006 c 0.3711,242.7703 0.9054,442.6118 1.1874,444.0922 0.4022,2.1119 1.1983,2.7923 3.696,3.1592 4.3132,0.6336 115.5497,-0.2045 182.6834,-1.3763 z m 1471,112.944 c -86.6271,-0.6165 -156.5436,-2.015 -157.5308,-3.151 -0.3465,-0.3988 -2.3936,-817.0433 -2.4416,-974.0175 l -0.042,-135.75 h 60.8665 60.8664 l 0.7858,304.25 c 0.4322,167.3375 1.0579,392.675 1.3905,500.75 l 0.6047,196.5 223.2584,0.2522 223.2584,0.2522 -0.2584,55.7478 -0.2584,55.7478 -153.5,0.078 c -84.425,0.043 -200.075,-0.2539 -257,-0.6591 z M 5351.5,3780.8935 c -14.0373,-2.0182 -27.1139,-12.0181 -34.7713,-26.5903 -9.6446,-18.3536 -8.7013,-34.6744 2.9188,-50.5041 12.2502,-16.6882 64.7056,-75.5233 115.2787,-129.2991 42.0855,-44.7508 127.8181,-129.7382 179.0564,-177.5 7.9655,-7.425 17.8655,-16.6926 22,-20.5946 6.6258,-6.2532 36.5314,-33.4351 61.0677,-55.5061 8.0423,-7.2342 37.7827,-33.3459 61.4638,-53.9645 21.146,-18.4114 76.5411,-65.0143 97.4859,-82.0133 128.605,-104.3765 222.5048,-172.6001 344,-249.9358 64.0843,-40.7917 136.1693,-83.1385 197.2176,-115.8566 187.3092,-100.3861 374.9965,-172.2309 583.7824,-223.466 117.6437,-28.8692 217.6375,-43.6206 346.5,-51.1165 24.6715,-1.4351 35.7653,-1.9473 77,-3.555 19.596,-0.764 98.7091,-0.4216 106.5,0.461 1.925,0.2181 11.15,0.6741 20.5,1.0135 9.35,0.3393 20.375,0.8171 24.5,1.0616 32.0413,1.8996 58.5107,3.5922 69.5,4.4442 42.9793,3.332 55.0995,4.3246 74,6.0602 11.55,1.0607 25.275,2.3899 30.5,2.9539 69.9801,7.5536 97.9106,11.6856 168.5,24.9276 92.4154,17.3363 188.1426,39.183 257.5,58.7662 32.3076,9.1221 71.1499,21.3962 73.37,23.1849 2.837,2.2856 149.9931,49.9329 218.13,70.6277 178.0328,54.073 362.4709,101.1824 499.5,127.5829 8.525,1.6425 21.125,4.077 28,5.4101 6.875,1.3331 21.05,4.0356 31.5,6.0055 10.45,1.97 21.025,4.0049 23.5,4.522 2.475,0.5171 16.425,3.2254 31,6.0183 14.575,2.7929 31.9,6.1667 38.5,7.4973 43.0317,8.6753 124.5035,22.0112 174.25,28.5225 3.9875,0.522 10.7375,1.4169 15,1.9888 4.2625,0.5719 11.2375,1.4719 15.5,2 4.2625,0.5281 11.35,1.4102 15.75,1.9602 32.0854,4.0107 61.1761,7.3057 97,10.9871 24.3856,2.5059 84.7608,8.1981 100.5,9.4752 9.9,0.8034 26.325,2.1428 36.5,2.9767 10.175,0.8338 28.4,2.219 40.5,3.0782 12.1,0.8593 27.85,1.9772 35,2.4843 31.718,2.2495 105.3138,5.6656 144.7112,6.7169 57.3072,1.5293 216.2525,0.7643 252.7888,-1.2166 3.575,-0.1939 12.8,-0.6244 20.5,-0.9567 53.916,-2.327 96.241,-5.0352 103.341,-6.6124 15.832,-3.5169 78.013,-19.4993 100.659,-25.8725 5.5,-1.5479 16.075,-4.4881 23.5,-6.5338 7.425,-2.0458 14.625,-4.1078 16,-4.5823 1.375,-0.4745 9.025,-2.7146 17,-4.9779 59.559,-16.9033 144.024,-44.4536 211.5,-68.9859 9.35,-3.3994 19.475,-7.06 22.5,-8.1347 39.37,-13.9877 134.703,-52.8672 183.5,-74.8371 8.8,-3.962 25.675,-11.3875 37.5,-16.5011 74.116,-32.0508 127.473,-58.6013 227,-112.9544 22.305,-12.1809 80.12,-45.0811 106,-60.3201 24.611,-14.4917 56.323,-33.3719 60,-35.7223 1.925,-1.2303 13.625,-8.4811 26,-16.1129 12.375,-7.6318 25.315,-15.6809 28.755,-17.8869 3.44,-2.2059 11.904,-7.6108 18.809,-12.0108 15.747,-10.0353 60.972,-40.0458 72.936,-48.3999 45.68,-31.8963 63.527,-41.3788 78.012,-41.4489 6.469,-0.031 8.2,0.3966 14.799,3.6582 19.102,9.4405 35.689,36.2675 35.689,57.7214 0,9.3912 -3.367,15.6764 -12.5,23.3342 -13.868,11.6276 -70.27,50.4452 -107.806,74.1957 -4.294,2.7166 -12.047,7.6393 -17.23,10.9393 -30.731,19.5673 -97.818,60.752 -131.464,80.7061 -53.931,31.9843 -80.934,47.3346 -132,75.0386 -42.719,23.1757 -157.595,80.8915 -212,106.5129 -100.745,47.4447 -229.269,95.9642 -356.5,134.5831 -44.448,13.4914 -117.565,33.1275 -149.5,40.1487 -3.575,0.786 -14.6,3.2752 -24.5,5.5314 -103.262,23.5335 -221.769,40.3522 -334.5,47.4726 -79.4467,5.0181 -188.9259,5.9082 -245,1.992 -3.575,-0.2497 -15.5,-0.9202 -26.5,-1.49 -23.8146,-1.2336 -68.7666,-3.7564 -80,-4.4899 -60.5433,-3.9528 -106.7498,-7.5455 -135.5,-10.5355 -5.225,-0.5434 -14.675,-1.4264 -21,-1.9622 -16.9856,-1.4389 -48.0941,-5.0625 -94.5,-11.0078 -13.2,-1.6911 -27.375,-3.49 -31.5,-3.9976 -37.6182,-4.6288 -139.9965,-19.4927 -190,-27.5854 -139.2917,-22.5434 -202.5334,-35.0031 -340,-66.9861 -68.9933,-16.052 -194.2006,-49.1402 -276,-72.9378 -14.575,-4.2403 -28.075,-8.1524 -30,-8.6936 -45.4324,-12.7735 -163.2657,-49.8482 -242.7316,-76.3723 -20.4774,-6.835 -38.1064,-12.4272 -39.1756,-12.4272 -1.0692,0 -9.065,-2.2088 -17.7684,-4.9084 -115.5096,-35.8289 -251.463,-67.6445 -361.3244,-84.5566 -13.8304,-2.129 -64.0797,-9.299 -74,-10.5589 -4.675,-0.5937 -11.65,-1.4952 -15.5,-2.0034 -18.7251,-2.4712 -65.0643,-7.0653 -95,-9.4183 -18.5102,-1.4549 -29.1251,-2.1435 -73.5,-4.7677 -29.3412,-1.7352 -166.7791,-1.7439 -196,-0.012 -119.3878,7.0744 -197.4641,16.761 -300,37.2195 -199.5397,39.8134 -393.348,109.2809 -593,212.5516 -152.1299,78.6897 -342.3351,201.1387 -476,306.4362 -7.425,5.8493 -24.3,19.1278 -37.5,29.508 -47.8694,37.6433 -63.8493,50.7926 -116,95.4523 -28.0798,24.0463 -87.2704,75.5396 -88.5,76.9912 -0.275,0.3246 -6.35,5.7547 -13.5,12.0669 -7.15,6.3122 -13.225,11.7069 -13.5,11.9884 -0.275,0.2814 -2.75,2.5088 -5.5,4.9499 -32.6066,28.9435 -68.9675,63.549 -113.5432,108.0617 -53.6522,53.5764 -69.3559,70.1427 -163.0993,172.0581 -20.6457,22.4454 -57.2088,59.1796 -63.9175,64.2166 -2.194,1.6472 -6.3441,3.2585 -10.8154,4.1991 -7.8856,1.6588 -12.3971,1.7463 -21.6246,0.4197 z"
       id="path1" />
  </g>
</svg>
